<svg width="24" height="24" xmlns="http://www.w3.org/2000/svg">

 <g>
  <title>background</title>
  <rect fill="none" id="canvas_background" height="402" width="582" y="-1" x="-1"/>
 </g>
 <g>
  <title>Layer 1</title>
  <path fill="#ffffff" id="svg_1" d="m20.5,10l0,0c-0.8,0 -1.5,0.7 -1.5,1.5l0,0.3c0,3.6 -2.6,6.7 -6.1,7.2c-4.2,0.5 -7.9,-2.8 -7.9,-7l0,-0.5c0,-0.8 -0.7,-1.5 -1.5,-1.5c-0.8,0 -1.5,0.7 -1.5,1.5l0,0.5c0,4.8 3,8.9 8,9.8l0,0.2c0,1.1 0.9,2 2,2s2,-0.9 2,-2l0,-0.2c5,-1 8,-5.3 8,-10.1l0,-0.2c0,-0.8 -0.7,-1.5 -1.5,-1.5z"/>
  <path fill="#ffffff" id="svg_2" d="m12,16c2.8,0 5,-2.2 5,-5l0,-6c0,-2.8 -2.2,-5 -5,-5s-5,2.2 -5,5l0,6c0,2.8 2.2,5 5,5z"/>
 </g>
</svg>